<svg width="104" height="104" viewBox="0 0 104 104" fill="none" xmlns="http://www.w3.org/2000/svg">
<path d="M37.0001 71.9999V41.9999C37.0001 39.3477 38.0537 36.8042 39.9291 34.9288C41.8044 33.0534 44.348 31.9999 47.0001 31.9999H57.0001C59.6523 31.9999 62.1958 33.0534 64.0712 34.9288C65.9465 36.8042 67.0001 39.3477 67.0001 41.9999V71.9999L57.5501 65.6999C55.9068 64.6035 53.9756 64.0184 52.0001 64.0184C50.0246 64.0184 48.0934 64.6035 46.4501 65.6999L37.0001 71.9999Z" stroke="white" stroke-width="4" stroke-linecap="round" stroke-linejoin="round"/>
<path d="M52 102C79.615 102 102 79.615 102 52C102 24.385 79.615 2 52 2C24.385 2 2 24.385 2 52C2 79.615 24.385 102 52 102Z" stroke="white" stroke-width="4" stroke-linecap="round" stroke-linejoin="round"/>
</svg>
