<svg width="24" height="24" viewBox="0 0 24 24" fill="none" xmlns="http://www.w3.org/2000/svg">
<path d="M11.9994 3.14561e-07C9.15009 -0.000365833 6.39365 1.01333 4.22346 2.85963C2.05327 4.70594 0.610998 7.26434 0.154803 10.0769C-0.301393 12.8894 0.258267 15.7726 1.73361 18.2102C3.20895 20.6478 5.50366 22.4808 8.207 23.381C8.8084 23.4893 9.0237 23.12 9.0237 22.8025C9.0237 22.5174 9.01407 21.7621 9.01047 20.7577C5.67272 21.4794 4.96789 19.1484 4.96789 19.1484C4.74816 18.4231 4.27578 17.8005 3.6364 17.3935C2.55389 16.649 3.71939 16.6659 3.71939 16.6659C4.48918 16.7717 5.16875 17.2276 5.55605 17.9023C5.71859 18.1978 5.93802 18.4583 6.20171 18.6685C6.46539 18.8788 6.76811 19.0348 7.09238 19.1275C7.41666 19.2202 7.75608 19.2478 8.09107 19.2086C8.42606 19.1695 8.74998 19.0644 9.04414 18.8994C9.09947 18.2908 9.3713 17.7219 9.80792 17.2949C7.14494 16.993 4.34484 15.9634 4.34484 11.3652C4.33006 10.1758 4.77171 9.02609 5.57891 8.15251C5.21368 7.11728 5.25669 5.98178 5.69918 4.97715C5.69918 4.97715 6.70592 4.6536 8.99723 6.20519C10.9624 5.66635 13.0364 5.66635 15.0016 6.20519C17.2941 4.65239 18.2996 4.97715 18.2996 4.97715C18.7446 5.98148 18.7867 7.11811 18.4199 8.15251C19.23 9.02601 19.6713 10.1788 19.6515 11.37C19.6515 15.9803 16.849 16.993 14.1764 17.2901C14.7538 17.8795 15.0485 18.6877 14.9883 19.5105C14.9883 21.115 14.9739 22.4092 14.9739 22.8025C14.9739 23.1236 15.188 23.4965 15.8002 23.3786C18.5025 22.4768 20.7957 20.6429 22.2695 18.205C23.7433 15.7671 24.3016 12.8844 23.8445 10.0725C23.3874 7.2607 21.9446 4.70326 19.7744 2.85782C17.6042 1.01237 14.8482 -0.000651715 11.9994 3.14561e-07V3.14561e-07Z" fill="white"/>
</svg>
