<svg width="40" height="48" viewBox="0 0 40 48" fill="none" xmlns="http://www.w3.org/2000/svg">
<path fill-rule="evenodd" clip-rule="evenodd" d="M39.4841 0H0.000217014V34.4708H0C0 36.2465 0.51064 38.0049 1.50276 39.6455C2.49489 41.2861 3.94907 42.7768 5.78228 44.0324C7.61549 45.2881 9.79182 46.2841 12.187 46.9637C14.5822 47.6432 17.1494 47.993 19.7419 47.993C22.3345 47.993 24.9016 47.6432 27.2968 46.9637C29.692 46.2841 31.8684 45.2881 33.7016 44.0324C35.5348 42.7768 36.989 41.2861 37.9811 39.6455C38.9687 38.0124 39.4792 36.2625 39.4838 34.495H39.4841V0Z" fill="url(#paint0_linear_33_251)"/>
<path d="M16.3831 47.7316C19.0419 48.1029 22.5684 48.0565 22.8743 47.7316L22.8974 24.1731L33.6543 30.8535C33.8353 28.7654 33.8505 27.6979 33.4224 26.3409C29.651 22.0439 27.2711 19.5906 22.7584 15.1699C22.8017 10.6451 22.7584 5.81288 22.202 5.12714L21.2283 3.82202H18.0291C17.5491 4.30326 17.3672 4.63618 17.0786 5.06078C16.5222 5.87925 16.5013 10.5387 16.499 15.1699C12.1878 19.482 6.7854 24.9252 5.83492 26.3409C5.48717 26.9603 5.43403 28.5315 5.62628 30.8535L16.3367 24.1731L16.3831 47.7316Z" fill="#797777"/>
<path d="M16.3161 47.7511C17.1532 47.993 21.6774 48.1623 23.0851 47.7511L23.1093 22.1315L34.3266 29.3964C34.5153 27.1256 34.5312 25.9647 34.0848 24.489C30.1519 19.8161 27.6702 17.1481 22.9642 12.3407C23.0095 7.41998 22.9642 2.16504 22.384 1.4193L21.3687 0H18.0325C17.532 0.523342 17.3423 0.885389 17.0413 1.34713C16.4611 2.2372 16.4393 7.3043 16.4369 12.3407C11.9412 17.03 6.30751 22.9494 5.31634 24.489C4.9537 25.1625 4.89829 26.8712 5.09877 29.3964L16.2677 22.1315L16.3161 47.7511Z" fill="white"/>
<defs>
<linearGradient id="paint0_linear_33_251" x1="26.849" y1="-9.11867" x2="8.5616" y2="54.7324" gradientUnits="userSpaceOnUse">
<stop stop-color="#8CFFDA"/>
<stop offset="1" stop-color="#8447FF"/>
</linearGradient>
</defs>
</svg>
