<svg width="32" height="32" viewBox="0 0 32 32" fill="none" xmlns="http://www.w3.org/2000/svg">
<path d="M3 11.2012C2.99984 10.2444 3.19039 9.29711 3.56054 8.41477C3.93068 7.53242 4.47298 6.73269 5.15575 6.06234C5.83852 5.39199 6.64806 4.86445 7.53705 4.51055C8.42604 4.15666 9.37666 3.98352 10.3333 4.00123C11.4653 3.99522 12.5856 4.22986 13.62 4.6896C14.6544 5.14933 15.5793 5.82366 16.3333 6.6679C17.0874 5.82366 18.0123 5.14933 19.0467 4.6896C20.0811 4.22986 21.2014 3.99522 22.3333 4.00123C23.29 3.98352 24.2406 4.15666 25.1296 4.51055C26.0186 4.86445 26.8281 5.39199 27.5109 6.06234C28.1937 6.73269 28.736 7.53242 29.1061 8.41477C29.4763 9.29711 29.6668 10.2444 29.6667 11.2012C29.6667 18.3426 21.1613 23.7346 16.3333 28.0012C11.516 23.6986 3 18.3479 3 11.2012Z" fill="#A259FF"/>
</svg>
