<svg width="104" height="104" viewBox="0 0 104 104" fill="none" xmlns="http://www.w3.org/2000/svg">
<path d="M97.4545 52H102M52 6.54545V2M52 102V97.4545M88.3636 88.3636L83.8182 83.8182M88.3636 15.6364L83.8182 20.1818M15.6364 88.3636L20.1818 83.8182M15.6364 15.6364L20.1818 20.1818M2 52H6.54545M42.6909 41.1955L49.7773 26.1727C49.9682 25.7426 50.2798 25.3771 50.6743 25.1205C51.0689 24.864 51.5294 24.7274 52 24.7274C52.4706 24.7274 52.9311 24.864 53.3257 25.1205C53.7202 25.3771 54.0318 25.7426 54.2227 26.1727L61.3091 41.1955L77.15 43.6182C79.1818 43.9273 79.9909 46.5455 78.5227 48.0455L67.0591 59.7273L69.7636 76.2318C70.1136 78.3545 67.9864 79.9682 66.1682 78.9682L52 71.1727L37.8318 78.9682C36.0136 79.9682 33.8864 78.3545 34.2364 76.2318L36.9409 59.7318L25.4773 48.0455C24.0091 46.5455 24.8182 43.9273 26.85 43.6182L42.6909 41.1955Z" stroke="white" stroke-width="4" stroke-linecap="round" stroke-linejoin="round"/>
</svg>
