<svg width="24" height="24" viewBox="0 0 24 24" fill="none" xmlns="http://www.w3.org/2000/svg">
<path d="M0 24L1.72608 17.5689C0.472916 15.2902 0.00407027 12.6633 0.391701 10.0924C0.779332 7.52144 2.00194 5.14903 3.87139 3.34025C5.74085 1.53147 8.15351 0.386576 10.7381 0.0817843C13.3226 -0.223008 15.9358 0.329196 18.1755 1.6534C20.4151 2.97759 22.1571 5.0004 23.1333 7.41049C24.1095 9.82059 24.2658 12.4844 23.5782 14.9919C22.8905 17.4995 21.3971 19.7118 19.3277 21.2883C17.2582 22.8649 14.7275 23.7183 12.125 23.7173C10.151 23.7179 8.20726 23.2324 6.46575 22.3039L0 24ZM6.79115 19.8587L7.20144 20.0989C9.21663 21.2894 11.5981 21.7025 13.897 21.2605C16.196 20.8184 18.2537 19.5517 19.6826 17.699C21.1115 15.8463 21.8129 13.5355 21.6545 11.202C21.4962 8.86856 20.4891 6.67348 18.823 5.03037C17.1569 3.38726 14.9468 2.40958 12.6092 2.28152C10.2716 2.15346 7.96775 2.88387 6.13182 4.33513C4.29588 5.7864 3.05457 7.85831 2.64178 10.1605C2.22899 12.4627 2.67322 14.8363 3.89076 16.8339L4.14544 17.2438L3.18335 20.8339L6.79115 19.8587Z" fill="white"/>
<path fill-rule="evenodd" clip-rule="evenodd" d="M16.5393 13.4558C16.3016 13.2718 16.0263 13.1422 15.7329 13.0762C15.4395 13.0103 15.1352 13.0096 14.8415 13.0742C14.4029 13.2579 14.1199 13.9505 13.8228 14.3039C13.7652 14.3885 13.677 14.4476 13.5768 14.4686C13.4766 14.4897 13.372 14.4712 13.2852 14.417C11.6658 13.7941 10.308 12.6371 9.43686 11.1378C9.35533 11.0491 9.31009 10.9331 9.31009 10.8127C9.31009 10.6923 9.35533 10.5763 9.43686 10.4876C9.7661 10.1803 10.0057 9.78951 10.1301 9.35688C10.1752 8.86492 10.0664 8.37111 9.81887 7.94345C9.5925 7.44876 9.33783 6.72791 8.8285 6.44523C8.59387 6.35369 8.33902 6.32638 8.0903 6.36614C7.84158 6.4059 7.608 6.51127 7.41368 6.67137C7.07316 6.96352 6.80333 7.32895 6.62444 7.74022C6.44556 8.15148 6.36227 8.5979 6.38084 9.04593C6.38187 9.29797 6.41036 9.54915 6.46575 9.79504C6.62938 10.3767 6.87216 10.9331 7.1873 11.4488C7.42055 11.8442 7.6756 12.2264 7.95129 12.5936C8.82504 13.8159 9.93665 14.8494 11.2195 15.6325C11.8581 16.0362 12.5419 16.3635 13.2569 16.6078C14.0019 16.9408 14.8228 17.0677 15.6338 16.9752C16.0905 16.9236 16.5286 16.7649 16.9122 16.5118C17.2958 16.2588 17.614 15.9188 17.8409 15.5194C17.9509 15.261 17.9852 14.9768 17.94 14.6996C17.756 14.106 16.992 13.7385 16.5393 13.4558Z" fill="white"/>
</svg>
